<?xml version="1.0" encoding="iso-8859-1"?>
<!-- Generator: Adobe Illustrator 19.0.0, SVG Export Plug-In . SVG Version: 6.00 Build 0)  -->
<svg version="1.1" id="Capa_1" xmlns="http://www.w3.org/2000/svg" xmlns:xlink="http://www.w3.org/1999/xlink" x="0px" y="0px"
	 viewBox="0 0 512 512" style="enable-background:new 0 0 512 512;" xml:space="preserve">
<g>
	<path style="fill:#A0C7E7;" d="M458.031,253.44l-86.072-7.888V217.6l-0.069-0.069l-5.396-3.183l-47.602-27.606v-42.067
		c-0.72-8.943-5.652-17.009-13.284-21.725L93.681,0L53.759,19.926v28.091l26.015,15.083L53.828,76.039v0.069l0.208,210.543
		l278.21,161.418V448l17.921-8.925L418.386,512l39.853-19.926L458.031,253.44z"/>
	<g>
		<polygon style="fill:#4F6F7F;" points="332.248,448 332.248,448.069 54.038,286.651 53.831,76.108 81.575,92.16 252.542,191.308 
			278.972,206.668 279.041,206.668 279.041,206.737 326.574,234.344 332.04,237.527 332.04,243.754 332.109,265.479 
			332.109,265.548 332.04,265.548 332.109,298.551 332.109,330.655 332.179,419.909 		"/>
		<polyline style="fill:#4F6F7F;" points="332.109,298.551 332.179,298.482 332.04,265.548 		"/>
	</g>
	<path style="fill:#98A9D5;" d="M252.539,177.332v13.976L81.573,92.16L53.828,76.108v-0.069l25.946-12.938l13.976,8.095
		l145.505,84.411C246.874,160.335,251.802,168.395,252.539,177.332z"/>
	<path style="fill:#A0C7E7;" d="M279.039,164.67v41.998h-0.069l-26.431-15.36v-13.976c-0.737-8.937-5.664-16.997-13.284-21.725
		L93.75,71.196l-13.976-8.095L53.759,48.017V19.926l211.927,122.949c7.283,4.546,12.155,12.107,13.284,20.618
		C279.027,163.883,279.051,164.277,279.039,164.67z"/>
	<polygon style="fill:#BDDCF3;" points="221.268,326.089 221.268,346.361 202.449,335.429 188.196,327.196 156.231,308.653 
		141.839,300.281 116.447,285.613 102.055,277.241 87.941,269.077 87.941,234.759 87.872,198.85 121.221,218.154 135.543,226.525 
		167.508,244.999 181.831,253.371 207.154,268.108 221.199,276.203 221.199,310.659 	"/>
	<polygon style="fill:#394F63;" points="371.962,217.6 371.962,245.552 332.109,265.479 332.04,243.754 332.04,237.527 
		371.893,217.531 	"/>
	<path style="fill:#687492;" d="M318.892,144.675v42.136l-39.853,19.926V164.67c0.012-0.393-0.012-0.787-0.069-1.176
		c-1.129-8.511-6-16.073-13.284-20.618L53.759,19.926L93.681,0l211.928,122.949C313.24,127.666,318.172,135.732,318.892,144.675z"/>
	<polygon style="fill:#98A9D5;" points="458.034,253.44 418.112,273.366 332.109,265.548 332.109,265.479 371.962,245.552 	"/>
	<polygon style="fill:#687492;" points="458.241,492.074 418.388,512 418.112,273.366 458.034,253.44 	"/>
	
		<ellipse transform="matrix(-0.5624 -0.8269 0.8269 -0.5624 132.0235 792.071)" style="fill:#FE9189;" cx="275.617" cy="361.098" rx="19.92" ry="11.375"/>
	<g>
		<polygon style="fill:#F0F3F4;" points="221.199,276.203 221.199,276.618 156.231,308.653 141.839,300.281 207.154,268.108 		"/>
		<polygon style="fill:#F0F3F4;" points="181.831,253.371 116.447,285.613 102.055,277.241 167.508,244.999 		"/>
		<polygon style="fill:#F0F3F4;" points="135.543,226.525 87.941,250.188 87.941,234.759 121.221,218.154 		"/>
		<polygon style="fill:#F0F3F4;" points="221.268,326.089 202.449,335.429 188.196,327.196 221.199,310.659 		"/>
	</g>
	<polygon style="fill:#445C71;" points="371.893,217.531 332.04,237.527 326.574,234.344 279.041,206.737 318.894,186.811 
		318.894,186.742 366.496,214.348 	"/>
	<polyline style="fill:#394F63;" points="332.248,419.978 350.168,439.075 332.248,448 332.179,419.909 	"/>
</g>
<g>
</g>
<g>
</g>
<g>
</g>
<g>
</g>
<g>
</g>
<g>
</g>
<g>
</g>
<g>
</g>
<g>
</g>
<g>
</g>
<g>
</g>
<g>
</g>
<g>
</g>
<g>
</g>
<g>
</g>
</svg>
