<?xml version="1.0" encoding="iso-8859-1"?>
<!-- Generator: Adobe Illustrator 19.0.0, SVG Export Plug-In . SVG Version: 6.00 Build 0)  -->
<svg version="1.1" id="Capa_1" xmlns="http://www.w3.org/2000/svg" xmlns:xlink="http://www.w3.org/1999/xlink" x="0px" y="0px"
	 viewBox="0 0 512 512" style="enable-background:new 0 0 512 512;" xml:space="preserve">
<g>
	<polygon style="fill:#5496CE;" points="430.557,181.414 430.557,492.074 396.032,512 125.226,355.632 81.844,330.586 
		81.844,19.926 116.438,0 159.751,24.977 	"/>
	<g>
		<path style="fill:#EBECED;" d="M326.897,213.385l-102.926-40.784c-1.066-0.425-2.273-0.294-3.222,0.351s-1.517,1.718-1.514,2.866
			v149.757c0,1.911,1.549,3.459,3.459,3.459c1.911,0,3.459-1.549,3.459-3.459v-107.38l96.007,38.036v90.851
			c0,1.911,1.549,3.459,3.459,3.459c1.911,0,3.459-1.549,3.459-3.459v-130.48C329.081,215.183,328.216,213.908,326.897,213.385z
			 M226.154,210.75v-29.838l96.007,38.041v29.831L226.154,210.75z"/>
		
			<ellipse transform="matrix(-0.5735 -0.8192 0.8192 -0.5735 206.114 767.0698)" style="fill:#EBECED;" cx="302.747" cy="329.878" rx="40.247" ry="22.998"/>
		
			<ellipse transform="matrix(-0.5735 -0.8192 0.8192 -0.5735 62.317 647.9381)" style="fill:#EBECED;" cx="199.835" cy="307.746" rx="40.247" ry="22.998"/>
	</g>
	<polygon style="fill:#A5B4B4;" points="159.35,24.977 159.35,25.046 124.824,44.973 124.132,44.627 81.443,19.926 116.037,0 	"/>
	<polygon style="fill:#336A93;" points="430.557,181.414 396.032,201.341 125.226,44.973 159.751,25.046 159.751,24.977 	"/>
	<polygon style="fill:#445C71;" points="430.557,181.414 430.557,492.074 396.032,512 396.032,201.341 	"/>
	<polygon style="fill:#C9CED1;" points="125.226,44.973 125.226,355.632 81.844,330.586 81.844,19.926 124.534,44.627 
		124.603,44.627 	"/>
</g>
<g>
</g>
<g>
</g>
<g>
</g>
<g>
</g>
<g>
</g>
<g>
</g>
<g>
</g>
<g>
</g>
<g>
</g>
<g>
</g>
<g>
</g>
<g>
</g>
<g>
</g>
<g>
</g>
<g>
</g>
</svg>
